<svg xmlns="http://www.w3.org/2000/svg" viewBox="0 0 87.68 114.64"><defs><style>.cls-1{fill:#1f9967;}.cls-2{fill:#25ba81;}</style></defs><title>Asset 1</title><g id="Layer_2" data-name="Layer 2"><g id="Logo"><polygon class="cls-1" points="59.03 29.75 59.03 42.6 50.09 47.76 43.84 43.89 43.84 77.41 44.02 77.41 77.71 58.06 77.71 19.4 77.08 19.4 59.03 29.75"/><polygon class="cls-2" points="43.56 0 9.97 19.41 32.63 32.72 37.22 29.93 48.36 36.14 48.36 23.23 59.03 16.82 59.03 29.75 77.71 19.4 77.71 19.35 43.56 0"/><polygon class="cls-2" points="39.33 41.31 39.33 54.21 29.16 60.65 29.16 34.85 33.02 32.48 10.17 19.4 9.97 19.41 9.97 58.06 43.84 77.41 43.84 43.89 39.33 41.31"/><path d="M3.87,98.43v15.89H0v-21H5.29l8,15.93V93.36h3.87v21H11.83Z"/><path d="M26.56,114.64c-5.26,0-6.67-2.9-6.67-6v-3.87c0-3.15,1.42-6,6.67-6s6.67,2.9,6.67,6v3.87C33.23,111.74,31.82,114.64,26.56,114.64Zm0-12.68c-2,0-2.83.91-2.83,2.64v4.12c0,1.73.79,2.64,2.83,2.64s2.83-.91,2.83-2.64V104.6C29.39,102.87,28.61,102,26.56,102Z"/><path d="M44.91,114.32v-10.7c0-.82-.35-1.23-1.23-1.23a10.6,10.6,0,0,0-4,1.29v10.64H35.85V99h2.93l.38,1.29a15.36,15.36,0,0,1,6.14-1.61,2.91,2.91,0,0,1,2.9,1.64,15,15,0,0,1,6.17-1.64c2.55,0,3.46,1.79,3.46,4.53v11.11H54v-10.7c0-.82-.35-1.23-1.23-1.23a10.16,10.16,0,0,0-4,1.29v10.64Z"/><path d="M72.32,114.32H69.18l-.28-1a8.38,8.38,0,0,1-4.56,1.35c-2.8,0-4-1.92-4-4.56,0-3.12,1.35-4.31,4.47-4.31h3.68v-1.61c0-1.7-.47-2.3-2.93-2.3a21.44,21.44,0,0,0-4.25.47l-.47-2.93a20,20,0,0,1,5.26-.72c4.82,0,6.23,1.7,6.23,5.54Zm-3.84-5.79H65.65c-1.26,0-1.61.35-1.61,1.51s.35,1.54,1.54,1.54a6,6,0,0,0,2.9-.79Z"/><path d="M74.68,104.09c0-3.4,1.51-5.41,5.07-5.41a21.12,21.12,0,0,1,4.09.44V92.73l3.84-.54v22.13H84.63L84.25,113a8.07,8.07,0,0,1-4.85,1.61c-3.08,0-4.72-1.83-4.72-5.32Zm9.16-1.73a17,17,0,0,0-3.4-.41c-1.38,0-1.92.66-1.92,2v5.41c0,1.26.47,2,1.89,2A5.43,5.43,0,0,0,83.84,110Z"/><path d="M2.92,89.27V87.15H1v2.11H0V84.19H1v2.13H2.92V84.19h1v5.08Zm4.61,0H6.75L6.68,89a2.15,2.15,0,0,1-1.14.32c-.7,0-1-.46-1-1.09s.34-1,1.11-1h.92v-.38c0-.41-.12-.55-.73-.55a5.55,5.55,0,0,0-1.06.11l-.12-.7A5.18,5.18,0,0,1,6,85.53c1.2,0,1.55.41,1.55,1.32Zm-1-1.38H5.87c-.31,0-.4.08-.4.36s.09.37.38.37a1.55,1.55,0,0,0,.72-.19Zm3,1.46a4.67,4.67,0,0,1-1.32-.21l.13-.7a4.44,4.44,0,0,0,1.14.16c.42,0,.49-.09.49-.37s0-.34-.67-.48c-.93-.22-1-.44-1-1.15s.34-1.06,1.43-1.06a5.22,5.22,0,0,1,1.14.13l-.09.73a7,7,0,0,0-1.05-.11c-.42,0-.49.09-.49.32s0,.32.54.44c1.07.27,1.17.41,1.17,1.16S10.69,89.34,9.54,89.34Zm4.38-.08V86.71c0-.2-.09-.29-.31-.29a2.72,2.72,0,0,0-1,.31v2.54h-1V84.12l1,.14v1.62a3.48,3.48,0,0,1,1.4-.35c.63,0,.86.43.86,1.08v2.66Zm1.76-4.18v-.9h1v.9Zm0,4.18V85.6h1v3.67Zm1.72-3.63c0-.92.56-1.45,1.86-1.45a6.14,6.14,0,0,1,1.42.17l-.11.82A8,8,0,0,0,19.28,85c-.68,0-.9.23-.9.76v1.93c0,.53.22.76.9.76a8,8,0,0,0,1.28-.13l.11.82a6.14,6.14,0,0,1-1.42.17c-1.3,0-1.86-.53-1.86-1.45Zm5.39,3.71c-1.31,0-1.66-.69-1.66-1.44V87c0-.75.35-1.44,1.66-1.44s1.66.69,1.66,1.44v.93C24.44,88.65,24.09,89.34,22.78,89.34Zm0-3c-.51,0-.71.22-.71.63v1c0,.41.2.63.71.63s.71-.22.71-.63v-1C23.49,86.53,23.29,86.31,22.78,86.31Zm4.35.06a7.58,7.58,0,0,0-1,.53v2.36h-1V85.6H26L26,86a4.35,4.35,0,0,1,1-.48ZM31,88a1.13,1.13,0,0,1-1.26,1.29,5.48,5.48,0,0,1-1-.11v1.5l-1,.14V85.6h.76l.09.31a2.06,2.06,0,0,1,1.21-.38c.77,0,1.18.44,1.18,1.27Zm-2.28.41a4.41,4.41,0,0,0,.85.1c.34,0,.48-.16.48-.49V86.78c0-.3-.12-.47-.47-.47a1.38,1.38,0,0,0-.85.33Z"/></g></g></svg>