<svg xmlns="http://www.w3.org/2000/svg" viewBox="0 0 94.66 120.85"><defs><style>.cls-1{fill:#1159cc;}.cls-2{fill:#127eff;}</style></defs><title>Asset 1</title><g id="Layer_2" data-name="Layer 2"><g id="Logo"><path d="M2.92,89.27V87.15H1v2.11H0V84.19H1v2.13H2.92V84.19h1v5.08Zm4.61,0H6.75L6.68,89a2.15,2.15,0,0,1-1.14.32c-.7,0-1-.46-1-1.09s.34-1,1.11-1h.92v-.38c0-.41-.12-.55-.73-.55a5.55,5.55,0,0,0-1.06.11l-.12-.7A5.17,5.17,0,0,1,6,85.53c1.2,0,1.55.41,1.55,1.32Zm-1-1.38H5.87c-.31,0-.4.08-.4.36s.09.37.38.37a1.55,1.55,0,0,0,.72-.19Zm3,1.46a4.67,4.67,0,0,1-1.32-.21l.13-.7a4.44,4.44,0,0,0,1.14.16c.42,0,.49-.09.49-.37s0-.34-.67-.48c-.93-.22-1-.44-1-1.15s.34-1.06,1.43-1.06a5.22,5.22,0,0,1,1.14.13l-.09.73a7,7,0,0,0-1.05-.11c-.42,0-.49.09-.49.32s0,.32.54.44c1.07.27,1.17.41,1.17,1.16S10.69,89.34,9.53,89.34Zm4.38-.08V86.71c0-.2-.09-.29-.31-.29a2.72,2.72,0,0,0-1,.31v2.54h-1V84.12l1,.14v1.62A3.48,3.48,0,0,1,14,85.53c.63,0,.86.43.86,1.08v2.66Zm1.76-4.18v-.9h1v.9Zm0,4.18V85.6h1v3.66Zm1.72-3.63c0-.92.56-1.45,1.86-1.45a6.14,6.14,0,0,1,1.42.17l-.11.82A8,8,0,0,0,19.28,85c-.68,0-.9.23-.9.76v1.93c0,.53.22.76.9.76a8,8,0,0,0,1.28-.13l.11.82a6.14,6.14,0,0,1-1.42.17c-1.3,0-1.86-.53-1.86-1.45Zm5.39,3.71c-1.31,0-1.66-.69-1.66-1.44V87c0-.75.35-1.44,1.66-1.44s1.66.69,1.66,1.44v.93C24.44,88.65,24.08,89.34,22.78,89.34Zm0-3c-.51,0-.71.22-.71.63v1c0,.41.2.63.71.63s.71-.22.71-.63v-1C23.48,86.53,23.28,86.31,22.78,86.31Zm4.35.06a7.58,7.58,0,0,0-1,.53v2.36h-1V85.6H26L26,86a4.35,4.35,0,0,1,1-.48ZM30.95,88a1.13,1.13,0,0,1-1.26,1.29,5.48,5.48,0,0,1-1-.11v1.5l-1,.14V85.6h.76l.09.31a2.06,2.06,0,0,1,1.21-.38c.77,0,1.18.44,1.18,1.27Zm-2.28.41a4.41,4.41,0,0,0,.85.1c.34,0,.48-.16.48-.49V86.78c0-.3-.12-.47-.47-.47a1.38,1.38,0,0,0-.85.33Z"/><path d="M14.27,93.36h4.13l-6.27,21H6.27L0,93.36H4.13L9.2,110.84Z"/><path d="M29.85,114.33H26.7l-.28-1a8.39,8.39,0,0,1-4.57,1.35c-2.8,0-4-1.92-4-4.57,0-3.12,1.35-4.31,4.47-4.31H26v-1.61c0-1.7-.47-2.3-2.93-2.3a21.43,21.43,0,0,0-4.25.47l-.47-2.93a20,20,0,0,1,5.26-.72c4.82,0,6.24,1.7,6.24,5.54ZM26,108.54H23.18c-1.26,0-1.61.35-1.61,1.51s.35,1.54,1.54,1.54a6,6,0,0,0,2.9-.79Z"/><path d="M37.19,110.21a1.65,1.65,0,0,0-.91,1.23c0,.41.25.6.85.66l4.44.47c2.49.28,3.27,1.51,3.27,3.72,0,3.28-1.2,4.57-6.93,4.57a22.33,22.33,0,0,1-5.92-.79l.47-2.87a21.3,21.3,0,0,0,5.16.66c3.05,0,3.65-.22,3.65-1.23s-.28-1.1-1.45-1.23c-1.76-.19-2.49-.28-4.44-.5-2.17-.25-3-1-3-2.93A3.25,3.25,0,0,1,34,109.36a4.45,4.45,0,0,1-2.08-4.13v-1.45c.06-3.18,1.73-5.1,6.17-5.1a10.42,10.42,0,0,1,2.61.31h4.72v1.92l-1.7.47a5.26,5.26,0,0,1,.54,2.39v1.45c0,3.12-1.89,5-6.17,5A8,8,0,0,1,37.19,110.21Zm.88-8.44c-1.89,0-2.55.69-2.55,2.14v1.17c0,1.51.76,2.08,2.55,2.08s2.58-.6,2.58-2.08v-1.17C40.65,102.46,40,101.77,38.07,101.77Z"/><path d="M55,102.21A30.07,30.07,0,0,0,51,104.44v9.89H47.14V99h3.24l.25,1.7a17.18,17.18,0,0,1,4-2Z"/><path d="M67.89,114.33H64.74l-.28-1a8.39,8.39,0,0,1-4.57,1.35c-2.8,0-4-1.92-4-4.57,0-3.12,1.35-4.31,4.47-4.31h3.68v-1.61c0-1.7-.47-2.3-2.93-2.3a21.43,21.43,0,0,0-4.25.47L56.4,99.4a20,20,0,0,1,5.26-.72c4.82,0,6.24,1.7,6.24,5.54Zm-3.84-5.79H61.22c-1.26,0-1.61.35-1.61,1.51s.35,1.54,1.54,1.54a6,6,0,0,0,2.9-.79Z"/><path d="M79.32,114.33V103.62c0-.82-.35-1.23-1.23-1.23a10.59,10.59,0,0,0-4,1.29v10.64H70.25V99h2.93l.38,1.29a15.36,15.36,0,0,1,6.14-1.61c2.55,0,3.46,1.79,3.46,4.53v11.12Z"/><path d="M94.47,114a10.65,10.65,0,0,1-3.37.6c-2.8,0-4.22-1.32-4.22-4.06V102h-2.3V99h2.3V95.18l3.84-.54V99h3.94L94.41,102H90.72v8a1.21,1.21,0,0,0,1.39,1.35,7.39,7.39,0,0,0,1.92-.31Z"/><polygon class="cls-1" points="84.77 13.05 84.77 5.96 67.75 15.86 67.75 21.84 54.13 51.21 47.33 55.91 47.33 77.41 61.92 69 84.77 13.05"/><polygon class="cls-1" points="47.33 40.59 37.12 16.77 37.12 10.03 37.05 9.99 26.91 15.86 26.91 21.84 40.52 52.5 47.33 49.14 47.33 40.59"/><polygon class="cls-2" points="74.56 0 57.55 9.96 57.54 9.96 57.54 9.97 57.54 9.97 57.54 9.97 57.54 16.77 47.33 40.59 47.33 48.55 40.52 52.5 26.91 21.84 26.91 15.85 37.12 9.97 20.1 0 9.89 5.96 9.89 13.26 32.87 69.07 47.33 77.41 47.33 56.45 54.13 52.5 54.05 52.45 67.75 21.84 67.75 15.86 67.75 15.85 84.77 5.96 74.56 0"/></g></g></svg>